<?xml version="1.0" standalone="no"?>
<!DOCTYPE svg PUBLIC "-//W3C//DTD SVG 20010904//EN"
 "http://www.w3.org/TR/2001/REC-SVG-20010904/DTD/svg10.dtd">
<svg version="1.0" xmlns="http://www.w3.org/2000/svg"
 width="16.000000pt" height="16.000000pt" viewBox="0 0 16.000000 16.000000"
 preserveAspectRatio="xMidYMid meet">
<metadata>
Created by potrace 1.11, written by Peter Selinger 2001-2013
</metadata>
<g transform="translate(0.000000,16.000000) scale(0.001460,-0.001460)"
fill="#000000" stroke="none">
<path d="M2595 7550 c-131 -51 -188 -171 -164 -345 4 -33 11 -82 14 -110 3
-27 8 -57 10 -65 2 -8 7 -35 10 -60 13 -99 21 -140 61 -335 43 -210 36 -178
79 -342 215 -825 555 -1482 1005 -1946 52 -54 96 -100 97 -101 2 -1 -358 -3
-800 -2 -894 0 -847 3 -896 -69 -31 -46 -31 -108 0 -172 29 -59 163 -196 246
-251 257 -169 622 -299 1098 -391 103 -20 161 -30 200 -36 23 -3 50 -7 60 -9
27 -5 103 -16 145 -21 19 -2 60 -7 90 -12 73 -10 3166 -10 3250 0 36 5 77 10
91 13 15 2 47 6 70 9 24 3 55 8 69 10 14 2 54 9 90 15 382 61 738 158 994 270
325 143 559 361 543 507 -6 55 -46 108 -94 124 -29 9 -223 13 -818 14 -429 1
-783 3 -787 3 -4 1 28 37 70 80 248 252 453 543 629 897 57 112 109 227 132
287 9 24 13 25 43 18 18 -4 206 -52 418 -105 l385 -98 135 0 c74 0 149 2 165
6 17 3 44 9 60 12 279 54 549 264 684 532 107 214 135 467 75 697 -112 432
-497 742 -929 749 -60 1 -140 -1 -176 -5 -126 -15 -303 -78 -391 -139 -35 -25
-36 -25 -30 19 25 178 -25 289 -156 348 l-52 24 -2838 -1 c-2778 0 -2838 0
-2887 -19z m5627 -279 c14 -1 15 -7 8 -33 -5 -18 -11 -60 -15 -93 -3 -33 -8
-71 -10 -85 -9 -47 -16 -95 -21 -129 -7 -52 -64 -334 -70 -343 -3 -4 -32 -112
-64 -240 -104 -412 -206 -689 -370 -1011 -236 -464 -505 -793 -860 -1052 l-54
-40 -177 -1 c-96 0 -180 -3 -185 -7 -6 -3 -10 -68 -9 -149 l0 -143 1005 -2
c553 -1 1009 -2 1013 -2 64 -7 -306 -150 -556 -216 -97 -25 -343 -77 -422 -89
-23 -4 -50 -8 -60 -10 -11 -2 -40 -7 -65 -11 -25 -4 -53 -9 -63 -11 -10 -2
-46 -6 -80 -10 -34 -3 -75 -9 -92 -12 -16 -2 -718 -6 -1560 -8 -1686 -3 -1578
-6 -1990 62 -35 6 -192 37 -288 58 -206 45 -457 128 -617 204 -72 35 -80 41
-55 42 17 1 767 2 1668 2 l1637 1 0 149 c0 81 -3 148 -7 149 -5 0 -382 2 -839
2 l-831 2 -94 71 c-347 261 -621 611 -860 1099 -63 128 -182 412 -194 460 -1
6 -5 19 -9 30 -5 11 -14 36 -21 56 -36 96 -153 520 -171 619 -3 14 -12 54 -20
89 -8 36 -17 79 -19 95 -2 17 -7 42 -10 56 -23 108 -69 436 -62 447 4 6 5383
10 5489 4z m1024 -261 c178 -46 323 -147 419 -291 164 -248 161 -552 -6 -795
-140 -202 -357 -309 -604 -298 -44 2 -89 5 -100 8 -49 11 -720 180 -723 182
-2 1 18 82 44 180 105 407 134 520 134 534 0 22 86 192 114 225 126 149 260
231 427 264 82 16 211 12 295 -9z"/>
</g>
</svg>
