<?xml version="1.0" encoding="UTF-8" standalone="no"?>
<!DOCTYPE svg PUBLIC "-//W3C//DTD SVG 1.1//EN" "http://www.w3.org/Graphics/SVG/1.1/DTD/svg11.dtd">
<svg version="1.1" xmlns="http://www.w3.org/2000/svg" xmlns:xlink="http://www.w3.org/1999/xlink" preserveAspectRatio="xMidYMid meet" viewBox="0 0 640 640" width="640" height="640"><defs><path d="M334.35 56.65L338.22 56.85L341.92 57.12L345.46 57.47L348.85 57.9L352.09 58.4L355.2 58.98L358.18 59.62L361.05 60.34L363.81 61.12L366.47 61.97L369.05 62.88L371.55 63.86L373.98 64.9L376.35 66L378.66 67.16L380.94 68.38L383.19 69.66L385.41 70.99L387.62 72.37L389.82 73.8L392.03 75.29L394.25 76.83L396.5 78.41L398.78 80.04L401.1 81.71L403.48 83.43L405.92 85.19L408.42 86.99L411.01 88.83L413.68 90.71L416.45 92.62L419.33 94.57L422.33 96.55L425.45 98.57L428.71 100.61L432.11 102.68L435.66 104.78L437.66 105.97L439.64 107.21L441.62 108.49L443.58 109.83L445.53 111.22L447.47 112.65L449.4 114.14L451.33 115.68L453.24 117.28L455.14 118.92L457.04 120.63L458.93 122.38L460.81 124.19L462.68 126.06L464.54 127.98L466.4 129.95L468.25 131.99L470.1 134.08L471.94 136.23L473.77 138.44L475.6 140.71L477.42 143.04L479.24 145.42L481.06 147.87L482.87 150.38L484.67 152.95L486.48 155.59L488.28 158.28L490.08 161.04L491.87 163.86L493.66 166.75L495.46 169.71L497.24 172.72L499.03 175.81L500.82 178.96L502.61 182.18L504.4 185.46L506.18 188.82L507.97 192.24L509.76 195.73L511.5 199.57L513.12 204.03L514.63 209.05L516.03 214.62L517.32 220.7L518.5 227.25L519.56 234.24L520.51 241.63L521.34 249.4L522.06 257.49L522.65 265.9L523.13 274.56L523.49 283.47L523.73 292.57L523.85 301.84L523.85 311.23L523.73 320.73L523.48 330.28L523.11 339.87L522.61 349.45L521.99 358.99L521.24 368.45L520.37 377.8L519.37 387.02L518.23 396.05L516.97 404.87L515.58 413.45L514.06 421.75L512.41 429.73L510.62 437.37L508.7 444.62L506.64 451.46L504.45 457.85L502.12 463.75L499.66 469.13L497.06 473.96L494.32 478.19L491.44 481.81L488.42 484.77L485.26 487.05L481.96 488.97L478.56 490.89L475.07 492.83L471.5 494.77L467.85 496.72L464.13 498.66L460.36 500.61L456.54 502.56L452.68 504.5L448.78 506.44L444.87 508.38L440.94 510.31L437.01 512.23L433.08 514.13L429.16 516.03L425.26 517.91L421.4 519.78L417.57 521.62L413.79 523.45L410.07 525.26L406.42 527.05L402.83 528.81L399.33 530.55L395.92 532.26L392.62 533.94L389.42 535.6L386.34 537.22L383.38 538.8L380.56 540.35L377.89 541.87L375.37 543.34L373.01 544.78L370.82 546.17L368.81 547.53L366.99 548.83L365.36 550.09L363.94 551.3L362.74 552.46L361.76 553.57L361.01 554.63L360.34 555.65L359.59 556.67L358.76 557.68L357.87 558.68L356.91 559.68L355.89 560.67L354.81 561.66L353.68 562.64L352.5 563.62L351.27 564.59L350.01 565.56L348.71 566.53L347.38 567.49L346.03 568.46L344.65 569.42L343.26 570.38L341.85 571.35L340.43 572.31L339.01 573.27L337.58 574.24L336.16 575.2L334.75 576.17L333.35 577.14L331.97 578.12L330.61 579.1L329.28 580.08L327.97 581.07L326.7 582.07L325.47 583.07L324.28 584.07L323.14 585.09L322.05 586.11L321.01 587.14L320.04 588.18L319.13 589.23L318.29 590.28L317.52 591.35L316.83 592.43L316.23 593.52L315.71 594.62L315.64 594.75L315.58 594.86L315.51 594.94L315.45 595L315.39 595.04L315.33 595.05L315.27 595.04L315.21 595L315.15 594.95L315.09 594.87L315.04 594.76L314.98 594.64L314.93 594.49L314.87 594.32L314.82 594.13L314.77 593.92L314.72 593.68L314.67 593.43L314.62 593.15L314.57 592.85L314.52 592.53L314.47 592.19L314.42 591.82L314.37 591.44L314.32 591.04L314.28 590.62L314.23 590.17L314.18 589.71L314.14 589.23L314.09 588.72L314.05 588.2L314 587.66L313.95 587.1L313.91 586.52L313.86 585.93L313.82 585.31L313.78 584.68L313.73 584.02L313.69 583.35L313.64 582.66L313.6 583.35L313.55 584.02L313.51 584.67L313.46 585.31L313.41 585.92L313.37 586.52L313.32 587.09L313.27 587.65L313.22 588.19L313.17 588.7L313.12 589.2L313.08 589.68L313.03 590.14L312.97 590.58L312.92 591L312.87 591.4L312.82 591.78L312.77 592.14L312.72 592.47L312.66 592.79L312.61 593.09L312.56 593.36L312.51 593.62L312.45 593.85L312.4 594.07L312.34 594.26L312.29 594.43L312.24 594.57L312.18 594.7L312.13 594.8L312.07 594.89L312.02 594.95L311.96 594.99L311.91 595L311.85 594.99L311.8 594.96L311.74 594.91L311.69 594.84L311.63 594.74L311.58 594.62L311.06 593.52L310.45 592.43L309.76 591.35L309 590.28L308.16 589.22L307.25 588.17L306.28 587.13L305.25 586.1L304.16 585.07L303.03 584.05L301.84 583.04L300.61 582.04L299.34 581.04L298.04 580.05L296.71 579.06L295.35 578.08L293.98 577.1L292.58 576.12L291.17 575.15L289.76 574.18L288.34 573.21L286.91 572.25L285.5 571.28L284.09 570.32L282.7 569.36L281.32 568.39L279.96 567.43L278.64 566.46L277.34 565.5L276.07 564.53L274.85 563.56L273.66 562.58L272.53 561.61L271.45 560.62L270.42 559.64L269.45 558.65L268.55 557.65L267.72 556.65L266.96 555.64L266.28 554.63L265.51 553.58L264.52 552.48L263.31 551.33L261.88 550.13L260.25 548.87L258.42 547.57L256.4 546.23L254.2 544.84L251.84 543.41L249.31 541.93L246.63 540.42L243.81 538.87L240.85 537.28L237.76 535.66L234.56 534.01L231.25 532.33L227.84 530.62L224.34 528.88L220.76 527.11L217.1 525.32L213.38 523.51L209.6 521.68L205.77 519.82L201.91 517.95L198.02 516.07L194.1 514.17L190.18 512.26L186.25 510.34L182.32 508.41L178.41 506.47L174.53 504.52L170.67 502.57L166.86 500.62L163.09 498.67L159.38 496.72L155.74 494.78L152.18 492.83L148.7 490.9L145.31 488.97L142.03 487.05L138.85 484.73L135.83 481.63L132.94 477.79L130.19 473.26L127.59 468.06L125.13 462.24L122.8 455.84L120.62 448.9L118.58 441.46L116.67 433.56L114.9 425.23L113.27 416.53L111.78 407.48L110.43 398.12L109.21 388.5L108.13 378.66L107.18 368.64L106.37 358.47L105.69 348.19L105.15 337.86L104.74 327.49L104.47 317.14L104.33 306.85L104.32 296.64L104.44 286.58L104.69 276.68L105.08 267L105.59 257.57L106.24 248.43L107.02 239.63L107.92 231.19L108.96 223.17L110.12 215.6L111.41 208.52L112.83 201.97L114.37 195.99L116.04 190.62L117.84 185.9L119.76 181.87L121.81 178.56L123.83 175.77L125.67 173.22L127.35 170.9L128.87 168.81L130.25 166.92L131.5 165.21L132.63 163.68L133.65 162.32L134.57 161.1L135.41 160.01L136.18 159.03L136.88 158.16L137.54 157.38L138.16 156.67L138.75 156.02L139.32 155.41L139.89 154.83L140.47 154.27L141.07 153.7L141.7 153.13L142.37 152.52L143.1 151.87L143.89 151.17L144.76 150.39L145.72 149.52L146.78 148.56L147.95 147.47L149.24 146.26L150.67 144.9L152.24 143.38L153.98 141.69L155.88 139.81L157.97 137.73L160.25 135.42L162.73 132.89L165.43 130.11L168.35 127.07L171.52 123.75L174.94 120.14L178.62 116.23L182.33 112.25L185.87 108.46L189.23 104.85L192.44 101.42L195.51 98.15L198.45 95.06L201.27 92.13L203.99 89.35L206.63 86.73L209.2 84.26L211.71 81.93L214.17 79.74L216.6 77.69L219.02 75.76L221.43 73.97L223.86 72.29L226.31 70.73L228.8 69.29L231.34 67.95L233.95 66.71L236.64 65.57L239.42 64.53L242.31 63.57L245.33 62.7L248.48 61.91L251.79 61.2L255.25 60.55L258.9 59.97L262.73 59.46L266.78 59L271.04 58.59L275.54 58.23L280.28 57.92L285.29 57.64L290.57 57.4L296.15 57.19L302.02 57L308.22 56.83L314.74 56.68L321.61 56.54L326.05 56.49L330.3 56.53L334.35 56.65ZM309.66 123.16L307.68 123.54L305.67 123.97L303.63 124.44L301.57 124.97L299.48 125.53L297.37 126.14L295.25 126.79L293.11 127.47L290.96 128.18L288.81 128.93L286.65 129.71L284.49 130.52L282.33 131.35L280.18 132.2L278.03 133.08L275.9 133.97L273.78 134.88L271.68 135.81L269.61 136.74L267.55 137.69L265.53 138.64L263.53 139.59L261.57 140.55L259.65 141.51L257.76 142.47L255.92 143.42L254.13 144.37L252.39 145.31L250.7 146.23L249.06 147.15L247.49 148.04L245.98 148.92L244.53 149.78L243.15 150.62L241.85 151.43L240.61 152.22L239.46 152.97L238.39 153.7L236.43 155.08L234.59 156.45L232.87 157.8L231.26 159.14L229.77 160.46L228.39 161.77L227.12 163.07L225.95 164.35L224.88 165.62L223.91 166.88L223.03 168.12L222.25 169.36L221.56 170.59L220.95 171.81L220.42 173.03L219.98 174.23L219.61 175.43L219.31 176.63L219.09 177.82L218.93 179L218.84 180.19L218.81 181.37L218.83 182.54L218.92 183.72L219.05 184.9L219.23 186.08L219.46 187.25L219.74 188.43L220.05 189.61L220.4 190.8L220.78 191.99L221.2 193.18L221.64 194.38L222.11 195.59L222.6 196.8L223.1 198.02L223.63 199.24L224.16 200.48L224.71 201.73L225.26 202.98L225.9 204.21L226.73 205.37L227.73 206.46L228.9 207.48L230.22 208.44L231.7 209.34L233.31 210.17L235.06 210.93L236.93 211.64L238.92 212.29L241.02 212.87L243.22 213.4L245.51 213.87L247.89 214.29L250.35 214.65L252.88 214.95L255.46 215.21L258.1 215.41L260.79 215.56L263.51 215.65L266.26 215.71L269.04 215.71L271.83 215.66L274.62 215.57L277.41 215.44L280.19 215.26L282.95 215.04L285.68 214.77L288.38 214.47L291.04 214.13L293.64 213.74L296.19 213.32L298.67 212.87L301.08 212.38L303.4 211.85L305.63 211.29L307.77 210.7L309.8 210.07L311.71 209.42L313.5 208.74L315.28 209.42L317.18 210.07L319.2 210.7L321.33 211.29L323.56 211.85L325.87 212.38L328.27 212.87L330.75 213.32L333.3 213.74L335.9 214.13L338.55 214.47L341.25 214.77L343.98 215.04L346.75 215.26L349.53 215.44L352.32 215.57L355.11 215.66L357.9 215.71L360.68 215.71L363.43 215.66L366.16 215.56L368.84 215.41L371.49 215.21L374.08 214.95L376.61 214.65L379.07 214.29L381.45 213.87L383.75 213.4L385.95 212.87L388.06 212.29L390.05 211.64L391.93 210.93L393.68 210.17L395.29 209.34L396.77 208.44L398.09 207.48L399.26 206.46L400.26 205.37L401.09 204.21L401.74 202.98L402.29 201.73L402.84 200.48L403.37 199.24L403.9 198.02L404.4 196.8L404.89 195.59L405.36 194.38L405.8 193.18L406.22 191.99L406.6 190.8L406.95 189.61L407.26 188.43L407.53 187.25L407.76 186.07L407.95 184.9L408.08 183.72L408.16 182.54L408.19 181.37L408.16 180.19L408.07 179L407.91 177.82L407.69 176.63L407.39 175.43L407.02 174.23L406.58 173.03L406.05 171.81L405.44 170.59L404.75 169.36L403.97 168.12L403.09 166.88L402.12 165.62L401.05 164.35L399.88 163.07L398.61 161.77L397.23 160.46L395.74 159.14L394.14 157.8L392.41 156.45L390.57 155.08L388.61 153.7L387.54 152.97L386.39 152.22L385.16 151.43L383.85 150.62L382.48 149.78L381.03 148.92L379.52 148.04L377.95 147.14L376.32 146.23L374.63 145.31L372.89 144.37L371.1 143.42L369.27 142.47L367.39 141.51L365.47 140.55L363.51 139.59L361.52 138.64L359.5 137.69L357.45 136.74L355.37 135.81L353.28 134.88L351.16 133.97L349.03 133.08L346.89 132.21L344.74 131.35L342.58 130.52L340.42 129.71L338.26 128.94L336.1 128.19L333.95 127.47L331.81 126.79L329.69 126.14L327.57 125.53L325.48 124.97L323.41 124.45L321.37 123.97L319.35 123.54L317.36 123.16L315.41 122.83L313.5 122.56L311.6 122.83L309.66 123.16Z" id="bVo5lbFh"></path></defs><g><g><g><use xlink:href="#bVo5lbFh" opacity="1" fill="#fff" fill-opacity="1"></use><g><use xlink:href="#bVo5lbFh" opacity="1" fill-opacity="0" stroke="#000000" stroke-width="1" stroke-opacity="0"></use></g></g></g></g></svg>