<?xml version="1.0" encoding="UTF-8" standalone="no"?>
<!DOCTYPE svg PUBLIC "-//W3C//DTD SVG 1.1//EN" "http://www.w3.org/Graphics/SVG/1.1/DTD/svg11.dtd">
<svg version="1.1" xmlns="http://www.w3.org/2000/svg" xmlns:xlink="http://www.w3.org/1999/xlink" preserveAspectRatio="xMidYMid meet" viewBox="0 0 228 291" width="228" height="291"><defs><path d="M211.52 67.79C211.52 99.32 185.91 124.93 154.37 124.93C122.84 124.93 97.23 99.32 97.23 67.79C97.23 36.25 122.84 10.64 154.37 10.64C185.91 10.64 211.52 36.25 211.52 67.79Z" id="c49sFqtVyp"></path><path d="M93.39 146.45C93.39 169.11 74.99 187.52 52.32 187.52C29.65 187.52 11.25 169.11 11.25 146.45C11.25 123.78 29.65 105.37 52.32 105.37C74.99 105.37 93.39 123.78 93.39 146.45Z" id="c1O2kHSPdJ"></path><path d="M178.04 196C178.04 213.99 163.43 228.59 145.45 228.59C127.46 228.59 112.86 213.99 112.86 196C112.86 178.01 127.46 163.41 145.45 163.41C163.43 163.41 178.04 178.01 178.04 196Z" id="f2soluNW7p"></path><path d="M101.7 250.46C101.7 268.45 87.09 283.05 69.11 283.05C51.12 283.05 36.52 268.45 36.52 250.46C36.52 232.48 51.12 217.88 69.11 217.88C87.09 217.88 101.7 232.48 101.7 250.46Z" id="i2FNLdH6CN"></path></defs><g><g><g><g><use xlink:href="#c49sFqtVyp" opacity="1" fill-opacity="0" stroke="#000000" stroke-width="6" stroke-opacity="1"></use></g></g><g><g><use xlink:href="#c1O2kHSPdJ" opacity="1" fill-opacity="0" stroke="#000000" stroke-width="6" stroke-opacity="1"></use></g></g><g><g><use xlink:href="#f2soluNW7p" opacity="1" fill-opacity="0" stroke="#000000" stroke-width="6" stroke-opacity="1"></use></g></g><g><g><use xlink:href="#i2FNLdH6CN" opacity="1" fill-opacity="0" stroke="#000000" stroke-width="6" stroke-opacity="1"></use></g></g></g></g></svg>